<svg width="189" height="34" viewBox="0 0 189 34" fill="none" xmlns="http://www.w3.org/2000/svg">
<g clip-path="url(#clip0_66_905)">
<path d="M10.4492 0L19.2078 7.50454C19.7278 7.95007 20.0275 8.60387 20.0275 9.29245V14.9483L11.269 7.44374C10.7489 6.99821 10.4492 6.3444 10.4492 5.65578V0Z" fill="#7B19D8"/>
<path d="M10.4492 34L19.2078 26.4954C19.7278 26.0499 20.0275 25.3961 20.0275 24.7075V19.0517L11.269 26.5563C10.7489 27.0018 10.4492 27.6556 10.4492 28.3442V34Z" fill="#7B19D8"/>
<path d="M0 7.91379L8.63942 15.2749C9.05827 15.6318 9.58874 15.8276 10.1368 15.8276H17.1041L8.48593 8.46815C8.06678 8.1102 7.53557 7.91379 6.98661 7.91379H0Z" fill="#7B19D8"/>
<path d="M0 26.0862L8.58628 18.7293C9.00589 18.3698 9.53831 18.1724 10.0885 18.1724H17.1248L8.48542 25.5335C8.06656 25.8904 7.53614 26.0862 6.98806 26.0862H0Z" fill="#7B19D8"/>
<path d="M31.9278 0L23.1693 7.50454C22.6493 7.95007 22.3496 8.60387 22.3496 9.29245V14.9483L31.1081 7.44374C31.6282 6.99821 31.9278 6.3444 31.9278 5.65578V0Z" fill="#7B19D8"/>
<path d="M31.9278 34L23.1693 26.4954C22.6493 26.0499 22.3496 25.3961 22.3496 24.7075V19.0517L31.1081 26.5563C31.6282 27.0018 31.9278 27.6556 31.9278 28.3442V34Z" fill="#7B19D8"/>
<path d="M42.3765 7.91379L33.7371 15.2749C33.3183 15.6318 32.7878 15.8276 32.2398 15.8276H25.2725L33.8906 8.46815C34.3098 8.1102 34.8409 7.91379 35.3899 7.91379H42.3765Z" fill="#7B19D8"/>
<path d="M42.3768 26.0862L33.7905 18.7293C33.3709 18.3698 32.8385 18.1724 32.2883 18.1724H25.252L33.8914 25.5335C34.3102 25.8904 34.8406 26.0862 35.3887 26.0862H42.3768Z" fill="#7B19D8"/>
<path d="M112.531 9.06832C111.971 9.06832 111.502 8.87809 111.122 8.49753C110.742 8.11701 110.553 7.64589 110.553 7.08416C110.553 6.52244 110.742 6.05132 111.122 5.67079C111.502 5.29027 111.971 5.10001 112.531 5.10001C113.074 5.10001 113.535 5.29027 113.914 5.67079C114.293 6.05132 114.483 6.52244 114.483 7.08416C114.483 7.64589 114.293 8.11701 113.914 8.49753C113.535 8.87809 113.074 9.06832 112.531 9.06832Z" fill="#320C55"/>
<path d="M114.049 11.0525V26.0288H110.959V11.0525H114.049Z" fill="#320C55"/>
<path fill-rule="evenodd" clip-rule="evenodd" d="M122.39 11.5145C121.487 11.9857 120.772 12.5655 120.248 13.254V11.0525H117.158V33.15H120.248V23.8544C120.809 24.5429 121.531 25.1228 122.417 25.5939C123.302 26.0469 124.315 26.2734 125.453 26.2734C126.754 26.2734 127.938 25.9473 129.004 25.2949C130.088 24.6245 130.937 23.7004 131.552 22.5225C132.166 21.3266 132.473 19.9766 132.473 18.4727C132.473 16.9687 132.166 15.6368 131.552 14.4772C130.937 13.3175 130.088 12.4205 129.004 11.7864C127.938 11.134 126.754 10.8078 125.453 10.8078C124.315 10.8078 123.294 11.0435 122.39 11.5145ZM128.679 15.809C129.113 16.552 129.329 17.4398 129.329 18.4727C129.329 19.5055 129.113 20.4116 128.679 21.1907C128.263 21.9699 127.702 22.5678 126.998 22.9846C126.312 23.3832 125.57 23.5826 124.775 23.5826C123.998 23.5826 123.257 23.3832 122.553 22.9846C121.865 22.5859 121.305 22.0061 120.872 21.2451C120.456 20.4659 120.248 19.5599 120.248 18.527C120.248 17.4942 120.456 16.5973 120.872 15.8362C121.305 15.0752 121.865 14.4953 122.553 14.0966C123.257 13.698 123.998 13.4987 124.775 13.4987C125.57 13.4987 126.312 13.698 126.998 14.0966C127.702 14.4772 128.263 15.048 128.679 15.809Z" fill="#320C55"/>
<path d="M140.002 26.2734C138.827 26.2734 137.77 26.065 136.83 25.6482C135.909 25.2134 135.177 24.6335 134.635 23.9087C134.093 23.1658 133.804 22.3413 133.767 21.4353H136.966C137.02 22.0695 137.318 22.604 137.861 23.039C138.421 23.4557 139.117 23.6641 139.947 23.6641C140.815 23.6641 141.484 23.501 141.953 23.1748C142.442 22.8306 142.686 22.3957 142.686 21.8702C142.686 21.3085 142.414 20.8917 141.872 20.6199C141.348 20.3481 140.508 20.0491 139.351 19.723C138.231 19.4149 137.318 19.1159 136.613 18.8261C135.909 18.5361 135.294 18.0922 134.771 17.4942C134.265 16.8962 134.011 16.108 134.011 15.1295C134.011 14.3322 134.246 13.6074 134.716 12.9551C135.186 12.2846 135.855 11.7592 136.722 11.3786C137.607 10.9981 138.619 10.8078 139.757 10.8078C141.457 10.8078 142.821 11.2427 143.851 12.1125C144.899 12.9641 145.46 14.1329 145.532 15.6187H142.442C142.387 14.9483 142.116 14.4138 141.628 14.0151C141.141 13.6165 140.48 13.4172 139.65 13.4172C138.836 13.4172 138.212 13.5712 137.779 13.8792C137.345 14.1873 137.128 14.5949 137.128 15.1023C137.128 15.5009 137.273 15.8362 137.562 16.108C137.851 16.3798 138.204 16.5973 138.619 16.7603C139.035 16.9053 139.65 17.0955 140.463 17.3311C141.547 17.621 142.432 17.92 143.119 18.2281C143.824 18.518 144.429 18.9529 144.935 19.5327C145.441 20.1125 145.703 20.8826 145.722 21.843C145.722 22.6947 145.487 23.4557 145.016 24.1261C144.547 24.7966 143.878 25.3221 143.01 25.7026C142.161 26.0831 141.158 26.2734 140.002 26.2734Z" fill="#320C55"/>
<path d="M185.991 11.5417C185.069 11.0525 184.022 10.8078 182.847 10.8078C181.744 10.8078 180.715 11.0797 179.757 11.6232C178.799 12.1487 178.094 12.8645 177.642 13.7705C177.136 12.8101 176.413 12.0763 175.473 11.5689C174.534 11.0616 173.468 10.8078 172.275 10.8078C171.39 10.8078 170.559 10.98 169.781 11.3243C169.004 11.6685 168.363 12.1487 167.857 12.7648V11.0525H164.767V26.0288H167.857V17.6573C167.857 16.3163 168.191 15.2926 168.859 14.5859C169.547 13.8611 170.468 13.4987 171.625 13.4987C172.781 13.4987 173.694 13.8611 174.362 14.5859C175.031 15.2926 175.365 16.3163 175.365 17.6573V26.0288H178.429V17.6573C178.429 16.3163 178.763 15.2926 179.431 14.5859C180.118 13.8611 181.04 13.4987 182.196 13.4987C183.353 13.4987 184.266 13.8611 184.935 14.5859C185.602 15.2926 185.937 16.3163 185.937 17.6573V26.0288H189V17.1952C189 15.8362 188.729 14.6765 188.187 13.7161C187.663 12.7558 186.931 12.031 185.991 11.5417Z" fill="#320C55"/>
<path d="M161.638 26.0288V11.0525H158.548V19.3968C158.548 20.7377 158.204 21.7705 157.518 22.4953C156.849 23.202 155.937 23.5554 154.78 23.5554C153.623 23.5554 152.711 23.202 152.043 22.4953C151.374 21.7705 151.039 20.7377 151.039 19.3968V11.0525H147.976V19.8589C147.976 21.2179 148.238 22.3775 148.763 23.3379C149.304 24.2983 150.036 25.0231 150.958 25.5123C151.898 26.0016 152.954 26.2462 154.129 26.2462C155.015 26.2462 155.846 26.0741 156.623 25.7297C157.418 25.3674 158.06 24.8781 158.548 24.2621V26.0288H161.638Z" fill="#320C55"/>
<path fill-rule="evenodd" clip-rule="evenodd" d="M97.2793 25.3221C98.4175 25.9563 99.6914 26.2734 101.101 26.2734C102.529 26.2734 103.83 25.9563 105.005 25.3221C106.197 24.6698 107.137 23.7547 107.823 22.5768C108.51 21.3991 108.853 20.0491 108.853 18.527C108.853 17.0049 108.519 15.655 107.851 14.4772C107.182 13.2994 106.269 12.3933 105.113 11.7592C103.956 11.125 102.665 10.8078 101.236 10.8078C99.8092 10.8078 98.5167 11.125 97.3598 11.7592C96.2038 12.3933 95.291 13.2994 94.6223 14.4772C93.9536 15.655 93.6196 17.0049 93.6196 18.527C93.6196 20.0672 93.9451 21.4263 94.5951 22.604C95.246 23.7638 96.1402 24.6698 97.2793 25.3221ZM103.324 23.0118C102.637 23.3923 101.896 23.5826 101.101 23.5826C99.8541 23.5826 98.815 23.1477 97.9836 22.2779C97.1708 21.39 96.764 20.1397 96.764 18.527C96.764 17.4398 96.9623 16.5248 97.3598 15.7819C97.7581 15.0208 98.2912 14.45 98.9591 14.0694C99.6464 13.689 100.387 13.4987 101.182 13.4987C101.977 13.4987 102.718 13.689 103.405 14.0694C104.092 14.45 104.643 15.0208 105.059 15.7819C105.474 16.5248 105.682 17.4398 105.682 18.527C105.682 19.6143 105.465 20.5384 105.032 21.2994C104.598 22.0605 104.028 22.6312 103.324 23.0118Z" fill="#320C55"/>
<path fill-rule="evenodd" clip-rule="evenodd" d="M81.0045 25.3567C80.9836 25.3453 80.9626 25.3337 80.9417 25.3221C79.8032 24.6698 78.9086 23.7638 78.2581 22.604C77.6075 21.4263 77.2822 20.0672 77.2822 18.527C77.2822 17.0049 77.6166 15.655 78.2852 14.4772C78.9538 13.2994 79.8664 12.3933 81.023 11.7592C82.1796 11.125 83.4717 10.8078 84.8993 10.8078C86.3266 10.8078 87.6191 11.125 88.776 11.7592C89.932 12.3933 90.8448 13.2994 91.5135 14.4772C92.1822 15.655 92.5161 17.0049 92.5161 18.527C92.5161 20.0491 92.1729 21.3991 91.4864 22.5768C90.7999 23.7547 89.86 24.6698 88.6675 25.3221C87.6572 25.8674 86.5537 26.1784 85.3562 26.2547C86.8233 26.9277 89.0548 27.4711 90.3075 27.7762C90.844 27.9069 91.2008 27.9937 91.2423 28.0285L91.244 28.0289V31.1296H79.9858V28.0289H86.4732C84.8231 27.6552 82.5816 26.4284 81.0045 25.3567ZM84.7637 23.5826C85.5587 23.5826 86.2995 23.3923 86.9868 23.0118C87.6911 22.6312 88.2607 22.0605 88.6946 21.2994C89.1277 20.5384 89.3447 19.6143 89.3447 18.527C89.3447 17.4398 89.137 16.5248 88.7217 15.7819C88.3056 15.0208 87.7547 14.45 87.0682 14.0694C86.3808 13.689 85.6401 13.4987 84.8451 13.4987C84.05 13.4987 83.309 13.689 82.6223 14.0694C81.9537 14.45 81.4206 15.0208 81.023 15.7819C80.6254 16.5248 80.4267 17.4398 80.4267 18.527C80.4267 20.1397 80.8332 21.39 81.6464 22.2779C82.4778 23.1477 83.5169 23.5826 84.7637 23.5826Z" fill="#320C55"/>
<path fill-rule="evenodd" clip-rule="evenodd" d="M64.6042 25.3221C65.7427 25.9563 67.0167 26.2734 68.4263 26.2734C69.8539 26.2734 71.1551 25.9563 72.3297 25.3221C73.5224 24.6698 74.4621 23.7547 75.1488 22.5768C75.8356 21.3991 76.1789 20.0491 76.1789 18.527C76.1789 17.0049 75.8445 15.655 75.1759 14.4772C74.5073 13.2994 73.5947 12.3933 72.4381 11.7592C71.2816 11.125 69.9894 10.8078 68.5619 10.8078C67.1342 10.8078 65.8421 11.125 64.6856 11.7592C63.529 12.3933 62.6164 13.2994 61.9478 14.4772C61.2792 15.655 60.9448 17.0049 60.9448 18.527C60.9448 20.0672 61.2701 21.4263 61.9207 22.604C62.5712 23.7638 63.4657 24.6698 64.6042 25.3221ZM70.6491 23.0118C69.9624 23.3923 69.2214 23.5826 68.4263 23.5826C67.1794 23.5826 66.1403 23.1477 65.309 22.2779C64.4958 21.39 64.0893 20.1397 64.0893 18.527C64.0893 17.4398 64.288 16.5248 64.6856 15.7819C65.0832 15.0208 65.6163 14.45 66.2849 14.0694C66.9715 13.689 67.7125 13.4987 68.5076 13.4987C69.3028 13.4987 70.0437 13.689 70.7304 14.0694C71.4171 14.45 71.9683 15.0208 72.3839 15.7819C72.7995 16.5248 73.0073 17.4398 73.0073 18.527C73.0073 19.6143 72.7905 20.5384 72.3568 21.2994C71.9231 22.0605 71.3539 22.6312 70.6491 23.0118Z" fill="#320C55"/>
<path d="M53.9422 23.5282H60.3123V26.0288H50.8521V7.13849H53.9422V23.5282Z" fill="#320C55"/>
</g>
<defs>
<clipPath id="clip0_66_905">
<rect width="189" height="34" fill="white"/>
</clipPath>
</defs>
</svg>
