<svg width="20" height="20" viewBox="0 0 20 20" fill="none" xmlns="http://www.w3.org/2000/svg">
<path d="M2.72908 12.7464C2.02081 11.8262 1.66667 11.3661 1.66667 10C1.66667 8.63385 2.02081 8.17377 2.72908 7.25361C4.14331 5.4163 6.5151 3.33333 10 3.33333C13.4849 3.33333 15.8567 5.4163 17.2709 7.25361C17.9792 8.17377 18.3333 8.63385 18.3333 10C18.3333 11.3661 17.9792 11.8262 17.2709 12.7464C15.8567 14.5837 13.4849 16.6667 10 16.6667C6.5151 16.6667 4.14331 14.5837 2.72908 12.7464Z" stroke="#4B4B4B" stroke-width="1.5"/>
<path d="M12.5 10C12.5 11.3807 11.3807 12.5 10 12.5C8.61929 12.5 7.5 11.3807 7.5 10C7.5 8.61929 8.61929 7.5 10 7.5C11.3807 7.5 12.5 8.61929 12.5 10Z" stroke="#4B4B4B" stroke-width="1.5"/>
</svg>
