<svg width="20" height="20" viewBox="0 0 20 20" fill="none" xmlns="http://www.w3.org/2000/svg">
<g clip-path="url(#clip0_72_264)">
<path fill-rule="evenodd" clip-rule="evenodd" d="M10.0002 0.416672C7.62624 0.417903 5.3301 1.25872 3.52238 2.78877C1.71466 4.31883 0.513243 6.43835 0.132944 8.76834C-0.247355 11.0983 0.218262 13.4869 1.44655 15.5068C2.67484 17.5268 4.58569 19.0465 6.83743 19.7941C7.3342 19.8864 7.52132 19.5785 7.52132 19.3167C7.52132 19.0549 7.51138 18.2958 7.50807 17.466C4.72615 18.067 4.13831 16.2921 4.13831 16.2921C3.68459 15.1395 3.02885 14.8366 3.02885 14.8366C2.12142 14.2208 3.09675 14.2323 3.09675 14.2323C4.10189 14.3031 4.63012 15.2581 4.63012 15.2581C5.521 16.7778 6.9699 16.3382 7.53953 16.0813C7.62895 15.4376 7.88893 14.9996 8.1754 14.751C5.95318 14.5007 3.61836 13.6478 3.61836 9.83786C3.60458 8.84976 3.97334 7.89422 4.64833 7.16891C4.54567 6.91864 4.20289 5.9077 4.74603 4.53453C4.74603 4.53453 5.58558 4.2678 7.49649 5.55371C9.13555 5.10803 10.8649 5.10803 12.5039 5.55371C14.4132 4.2678 15.2511 4.53453 15.2511 4.53453C15.7959 5.90441 15.4531 6.91535 15.3504 7.16891C16.0276 7.89433 16.3971 8.85155 16.3821 9.84115C16.3821 13.6593 14.0423 14.5007 11.8167 14.746C12.1744 15.0556 12.494 15.6598 12.494 16.5884C12.494 17.9188 12.4824 18.989 12.4824 19.3167C12.4824 19.5818 12.6629 19.8913 13.1696 19.7941C15.4216 19.0464 17.3327 17.5264 18.5609 15.5061C19.7892 13.4858 20.2546 11.0969 19.8738 8.76672C19.4931 6.43651 18.2911 4.31697 16.4828 2.78718C14.6744 1.25739 12.3778 0.417123 10.0035 0.416672H10.0002Z" fill="#1A1A1A"/>
<path d="M3.78702 14.6933C3.76549 14.7427 3.68601 14.7576 3.62143 14.723C3.55685 14.6884 3.50883 14.6242 3.53201 14.5731C3.5552 14.5221 3.63302 14.5089 3.6976 14.5435C3.76218 14.5781 3.81186 14.6439 3.78702 14.6933Z" fill="#1A1A1A"/>
<path d="M4.19273 15.1428C4.15844 15.16 4.11921 15.1648 4.08175 15.1564C4.04429 15.148 4.01094 15.1269 3.9874 15.0967C3.92282 15.0276 3.90957 14.9321 3.95924 14.8893C4.00892 14.8465 4.09835 14.8662 4.16293 14.9354C4.22751 15.0045 4.24241 15.1 4.19273 15.1428Z" fill="#1A1A1A"/>
<path d="M4.58688 15.7142C4.52561 15.757 4.42128 15.7142 4.36333 15.6285C4.3473 15.6132 4.33456 15.5948 4.32585 15.5744C4.31715 15.554 4.31265 15.5321 4.31265 15.51C4.31265 15.4879 4.31715 15.466 4.32585 15.4456C4.33456 15.4252 4.3473 15.4068 4.36333 15.3915C4.4246 15.3503 4.52892 15.3915 4.58688 15.4754C4.64484 15.5594 4.64649 15.6714 4.58688 15.7142Z" fill="#1A1A1A"/>
<path d="M5.12171 16.2674C5.06707 16.3283 4.95612 16.3118 4.86505 16.2295C4.77397 16.1472 4.75244 16.0352 4.80709 15.9759C4.86173 15.9167 4.97268 15.9331 5.06706 16.0138C5.16145 16.0945 5.17967 16.2081 5.12171 16.2674Z" fill="#1A1A1A"/>
<path d="M5.87182 16.5901C5.84698 16.6675 5.73438 16.702 5.62178 16.6691C5.50918 16.6362 5.43466 16.544 5.45619 16.4649C5.47772 16.3859 5.59197 16.3497 5.70623 16.3859C5.82049 16.4221 5.89335 16.5094 5.87182 16.5901Z" fill="#1A1A1A"/>
<path d="M6.68986 16.6461C6.68986 16.7267 6.59713 16.7959 6.47791 16.7975C6.35868 16.7992 6.26099 16.7333 6.26099 16.6526C6.26099 16.572 6.35371 16.5028 6.47294 16.5012C6.59216 16.4995 6.68986 16.5637 6.68986 16.6461Z" fill="#1A1A1A"/>
<path d="M7.45157 16.5193C7.46647 16.6 7.38368 16.6839 7.26445 16.7037C7.14523 16.7234 7.0409 16.6757 7.026 16.5967C7.0111 16.5176 7.09721 16.432 7.21312 16.4106C7.32903 16.3892 7.43667 16.4386 7.45157 16.5193Z" fill="#1A1A1A"/>
</g>
<defs>
<clipPath id="clip0_72_264">
<rect width="20" height="20" fill="white"/>
</clipPath>
</defs>
</svg>
